<svg width="156" height="30" viewBox="0 0 156 30" fill="none" xmlns="http://www.w3.org/2000/svg">
<path d="M23 19C23 19.5304 22.7893 20.0391 22.4142 20.4142C22.0391 20.7893 21.5304 21 21 21H3C2.46957 21 1.96086 20.7893 1.58579 20.4142C1.21071 20.0391 1 19.5304 1 19V8C1 7.46957 1.21071 6.96086 1.58579 6.58579C1.96086 6.21071 2.46957 6 3 6H7L9 3H15L17 6H21C21.5304 6 22.0391 6.21071 22.4142 6.58579C22.7893 6.96086 23 7.46957 23 8V19Z" stroke="#00A6CC" stroke-width="2" stroke-linecap="round" stroke-linejoin="round"/>
<path d="M12 17C14.2091 17 16 15.2091 16 13C16 10.7909 14.2091 9 12 9C9.79086 9 8 10.7909 8 13C8 15.2091 9.79086 17 12 17Z" stroke="#00A6CC" stroke-width="2" stroke-linecap="round" stroke-linejoin="round"/>
<path d="M42.52 2.85927L42.22 2.35927C42.14 2.23927 42.08 2.17927 41.98 2.17927C41.92 2.17927 41.84 2.21927 41.74 2.27927L39.98 3.35927L38.2 2.27927C38.08 2.21927 38.02 2.17927 37.96 2.17927C37.9 2.17927 37.84 2.23927 37.76 2.35927L37.44 2.85927C37.36 2.97927 37.32 3.03927 37.32 3.09927C37.32 3.15927 37.38 3.21927 37.52 3.31927L39.76 5.09927C39.86 5.19927 39.92 5.23927 39.96 5.23927C40.02 5.23927 40.08 5.19927 40.2 5.09927L42.44 3.31927C42.56 3.21927 42.62 3.15927 42.62 3.09927C42.62 3.03927 42.58 2.97927 42.52 2.85927ZM44.1 18.3593C44.1 18.3393 44.1 18.3393 44.1 18.3193C44.1 18.1393 43.98 18.0593 43.8 18.0593H38.02L43.62 7.99927V6.61927C43.62 6.31927 43.6 6.27927 43.3 6.27927H36.52C36.4 6.27927 36.24 6.27927 36.22 6.37927L35.84 7.79927C35.82 7.85927 35.82 7.89927 35.82 7.91927C35.82 8.05927 35.92 8.09927 36.18 8.09927H41.22L35.56 18.3193V19.6593C35.56 19.9593 35.58 19.9993 35.88 19.9993H43.66C43.86 19.9993 43.92 19.9593 43.94 19.7393L44.1 18.3593ZM48.6345 7.01927C48.6345 6.23927 47.9945 5.59927 47.2145 5.59927C46.4345 5.59927 45.7945 6.23927 45.7945 7.01927C45.7945 7.81927 46.4345 8.43927 47.2145 8.43927C48.0145 8.43927 48.6345 7.81927 48.6345 7.01927ZM48.3145 19.7193V10.5393C48.3145 10.2793 48.2745 10.2393 48.0345 10.2393H44.7745C44.5145 10.2393 44.4745 10.2593 44.4745 10.5393V11.4993C44.4745 11.7793 44.5145 11.7993 44.7745 11.7993H46.3145V19.6993C46.3145 19.9593 46.3145 19.9993 46.5945 19.9993H48.0545C48.2945 19.9993 48.3145 19.9593 48.3145 19.7193ZM59.1819 19.3993C58.8619 18.8593 58.7419 18.3793 58.7419 17.3993V10.2393C58.7419 10.0193 58.6819 9.95927 58.5819 9.95927C58.5419 9.95927 58.4619 9.97927 58.3819 9.99927L56.9819 10.3393C56.7819 10.3793 56.7219 10.4393 56.7219 10.6393V17.7393C56.0419 18.3193 55.3219 18.6193 54.6419 18.6193C53.6419 18.6193 53.3219 18.0993 53.3219 16.5593V10.2393C53.3219 10.0393 53.2419 9.97927 53.1219 9.97927C53.0619 9.97927 53.0019 9.97927 52.9419 9.99927L51.5419 10.3393C51.3419 10.3793 51.2819 10.4393 51.2819 10.6393V17.0193C51.2819 19.0393 51.9419 20.2993 54.1419 20.2993C55.2419 20.2993 56.0019 19.9993 57.0019 19.1193C57.0819 19.4393 57.1819 19.7393 57.3019 19.9393C57.4019 20.1193 57.5019 20.2593 57.6819 20.2593C57.7219 20.2593 57.7819 20.2393 57.8419 20.2193L59.1219 19.7393C59.2219 19.6993 59.2619 19.6393 59.2619 19.5793C59.2619 19.5193 59.2219 19.4593 59.1819 19.3993ZM52.9819 6.71927C52.6819 6.71927 52.6419 6.73927 52.6419 7.03927V7.85927C52.6419 8.15927 52.6819 8.19927 52.9819 8.19927H57.2019C57.5019 8.19927 57.5219 8.15927 57.5219 7.85927V7.03927C57.5219 6.75927 57.5019 6.71927 57.2019 6.71927H52.9819ZM67.1744 10.5193C67.1944 10.4593 67.2144 10.3993 67.2144 10.3593C67.2144 10.2793 67.1744 10.2193 67.0744 10.1593C66.8544 10.0193 66.4944 9.93927 66.1344 9.93927C64.9744 9.93927 64.3544 10.7393 63.6344 11.5593C63.6144 11.3993 63.5144 10.9793 63.3344 10.5993C63.1944 10.2993 63.1144 9.95927 62.8544 9.95927C62.7944 9.95927 62.7344 9.97927 62.6744 9.99927L61.4544 10.5593C61.3344 10.6193 61.3144 10.6793 61.3144 10.7593C61.3144 10.8793 61.4344 11.0393 61.4944 11.1593C61.7944 11.8193 61.8944 12.3993 61.8944 13.6593V19.7193C61.8944 19.9593 61.9544 19.9993 62.1944 19.9993H63.6344C63.8944 19.9993 63.9144 19.9793 63.9144 19.7193V13.0593C64.7144 12.1393 65.2144 11.8393 65.6744 11.8393C65.9944 11.8393 66.1344 11.9193 66.4144 11.9993C66.4344 11.9993 66.4344 11.9993 66.4544 11.9993C66.5344 11.9993 66.5744 11.9593 66.6544 11.7993L67.1744 10.5193ZM75.5769 14.8993C75.5769 11.6993 74.2369 9.93927 71.7769 9.93927C69.2569 9.93927 67.6169 11.9993 67.6169 15.1593C67.6169 18.3993 69.1969 20.2993 71.9169 20.2993C72.9569 20.2993 74.2769 19.9793 75.0769 19.4793C75.2369 19.3793 75.3369 19.2993 75.3369 19.1793C75.3369 19.1193 75.3169 19.0593 75.2769 18.9793L74.8169 17.9793C74.7569 17.8793 74.7169 17.8393 74.6569 17.8393C74.6369 17.8393 74.5969 17.8393 74.5569 17.8593C73.9369 18.1393 73.2969 18.5793 72.1169 18.5793C70.5769 18.5793 69.7769 17.5793 69.6969 15.6393H75.2569C75.5569 15.6393 75.5769 15.4193 75.5769 15.0393C75.5769 14.9993 75.5769 14.9593 75.5769 14.8993ZM73.4369 14.0993H69.7169C69.8569 12.2993 70.4569 11.4593 71.6569 11.4593C72.8369 11.4593 73.3969 12.3193 73.4369 14.0993ZM73.1769 7.33927C73.1769 6.55927 72.5569 5.93927 71.7769 5.93927C70.9969 5.93927 70.3769 6.55927 70.3769 7.33927C70.3769 8.11927 70.9969 8.73927 71.7769 8.73927C72.5569 8.73927 73.1769 8.11927 73.1769 7.33927ZM80.3258 11.7993H82.6658C82.8658 11.7993 82.9258 11.7393 82.9658 11.5393L83.1858 10.5993C83.2058 10.5193 83.2258 10.4593 83.2258 10.3993C83.2258 10.2993 83.1658 10.2393 82.9658 10.2393H80.3258V7.29927C80.3258 7.07927 80.2658 7.03927 80.1658 7.03927C80.1058 7.03927 80.0258 7.03927 79.9258 7.05927L78.5658 7.31927C78.3658 7.35927 78.3058 7.41927 78.3058 7.61927V10.2393H76.9258C76.6658 10.2393 76.6058 10.2993 76.6058 10.5393V11.4993C76.6058 11.7393 76.6658 11.7993 76.9258 11.7993H78.3058V17.2393C78.3058 19.0393 78.7858 20.2593 80.8858 20.2593C81.6658 20.2593 82.5458 20.0793 83.2858 19.7393C83.4458 19.6593 83.5058 19.6193 83.5058 19.5193C83.5058 19.4793 83.4858 19.3993 83.4658 19.3193L83.1858 18.2993C83.1458 18.1593 83.1258 18.0593 83.0058 18.0593C82.9658 18.0593 82.9058 18.0593 82.8258 18.0993C82.3058 18.3193 81.8858 18.4993 81.3058 18.4993C80.5058 18.4993 80.3258 18.2193 80.3258 17.0393V11.7993ZM88.1463 7.01927C88.1463 6.23927 87.5063 5.59927 86.7263 5.59927C85.9463 5.59927 85.3063 6.23927 85.3063 7.01927C85.3063 7.81927 85.9463 8.43927 86.7263 8.43927C87.5263 8.43927 88.1463 7.81927 88.1463 7.01927ZM87.8263 19.7193V10.5393C87.8263 10.2793 87.7863 10.2393 87.5463 10.2393H84.2863C84.0263 10.2393 83.9863 10.2593 83.9863 10.5393V11.4993C83.9863 11.7793 84.0263 11.7993 84.2863 11.7993H85.8263V19.6993C85.8263 19.9593 85.8263 19.9993 86.1063 19.9993H87.5663C87.8063 19.9993 87.8263 19.9593 87.8263 19.7193ZM102.596 10.8193C102.616 10.7593 102.636 10.7193 102.636 10.6593C102.636 10.5993 102.596 10.5393 102.496 10.4793L101.236 9.91927C101.176 9.89927 101.136 9.87927 101.096 9.87927C100.876 9.87927 100.776 10.1393 100.636 10.3593C100.556 10.4793 100.516 10.6393 100.436 10.8193C99.5756 10.1593 98.9756 9.93927 98.0556 9.93927C95.7156 9.93927 94.3356 11.8793 94.3356 15.1793C94.3356 18.0193 95.5756 19.7993 97.5356 19.7993C98.4556 19.7993 99.2356 19.5193 100.076 18.8793C100.156 19.4193 100.156 20.0193 100.156 20.5593C100.156 21.9593 99.6556 22.4793 98.3356 22.4793C97.5356 22.4793 96.5956 22.2193 95.6156 21.7793C95.5156 21.7393 95.4356 21.6993 95.3556 21.6993C95.2756 21.6993 95.2156 21.7393 95.1756 21.8593L94.7956 22.9593C94.7556 23.0393 94.7556 23.0993 94.7556 23.1593C94.7556 23.2393 94.8156 23.2993 94.9756 23.3793C95.9156 23.8593 97.3356 24.1993 98.4756 24.1993C100.676 24.1993 101.916 23.1393 102.076 21.1193C102.096 20.8593 102.096 20.6193 102.096 20.3593C102.096 19.8193 102.076 19.2593 102.056 18.7193C102.036 17.8993 102.016 17.1593 102.016 16.1193V13.0793C102.016 12.1793 102.156 11.5793 102.596 10.8193ZM100.036 17.2793C99.2956 17.8593 98.7156 18.1193 98.0556 18.1193C96.9356 18.1193 96.4156 17.0993 96.4156 14.9193C96.4156 12.7993 97.1156 11.6393 98.3756 11.6393C98.9156 11.6393 99.3556 11.7993 100.036 12.2193V17.2793ZM111.837 19.2593C111.477 18.5793 111.357 18.0193 111.357 16.8993V12.9793C111.357 10.8593 110.257 9.95927 108.057 9.95927C107.117 9.95927 106.157 10.1393 105.197 10.5393C105.037 10.5993 104.797 10.6793 104.797 10.9393C104.797 10.9993 104.817 11.0593 104.837 11.1193L105.157 12.0993C105.197 12.1993 105.257 12.2393 105.337 12.2393C105.397 12.2393 105.457 12.2193 105.517 12.1993C106.457 11.7993 107.137 11.6193 107.817 11.6193C108.997 11.6193 109.397 12.0593 109.397 13.2793V13.9193C107.037 13.9393 104.157 14.3593 104.157 17.3593C104.157 19.1193 105.277 20.2393 106.997 20.2393C108.057 20.2393 108.837 19.8993 109.697 19.0393C109.797 19.4193 109.917 19.7193 110.037 19.9393C110.137 20.1393 110.237 20.2593 110.377 20.2593C110.437 20.2593 110.497 20.2393 110.577 20.1993L111.797 19.5993C111.857 19.5793 111.897 19.5193 111.897 19.4593C111.897 19.3993 111.857 19.3193 111.837 19.2593ZM109.397 17.7593C108.717 18.4193 108.117 18.7193 107.497 18.7193C106.717 18.7193 106.137 18.0793 106.137 17.2193C106.137 15.4793 108.137 15.3993 109.397 15.3793V17.7593ZM118.111 18.3993C118.071 18.2993 118.031 18.2593 117.951 18.2593C117.891 18.2593 117.831 18.2793 117.771 18.3193C117.511 18.4393 117.271 18.4793 117.051 18.4793C116.591 18.4793 116.371 18.2593 116.371 17.6193V5.79927C116.371 5.59927 116.351 5.49927 116.211 5.49927C116.171 5.49927 116.131 5.51927 116.071 5.51927L114.571 5.83927C114.411 5.87927 114.311 5.99927 114.311 6.15927V15.9593C114.311 16.4993 114.331 17.0793 114.331 17.6393C114.331 19.2193 114.771 20.2593 116.611 20.2593C117.191 20.2593 117.831 20.1393 118.331 19.9193C118.471 19.8593 118.511 19.8193 118.511 19.7593C118.511 19.6993 118.471 19.6393 118.451 19.5593L118.111 18.3993ZM126.964 14.8993C126.964 11.6993 125.624 9.93927 123.164 9.93927C120.644 9.93927 119.004 11.9993 119.004 15.1593C119.004 18.3993 120.584 20.2993 123.304 20.2993C124.344 20.2993 125.664 19.9793 126.464 19.4793C126.624 19.3793 126.724 19.2993 126.724 19.1793C126.724 19.1193 126.704 19.0593 126.664 18.9793L126.204 17.9793C126.144 17.8793 126.104 17.8393 126.044 17.8393C126.024 17.8393 125.984 17.8393 125.944 17.8593C125.324 18.1393 124.684 18.5793 123.504 18.5793C121.964 18.5793 121.164 17.5793 121.084 15.6393H126.644C126.944 15.6393 126.964 15.4193 126.964 15.0393C126.964 14.9993 126.964 14.9593 126.964 14.8993ZM124.824 14.0993H121.104C121.244 12.2993 121.844 11.4593 123.044 11.4593C124.224 11.4593 124.784 12.3193 124.824 14.0993ZM134.518 10.5193C134.538 10.4593 134.558 10.3993 134.558 10.3593C134.558 10.2793 134.518 10.2193 134.418 10.1593C134.198 10.0193 133.838 9.93927 133.478 9.93927C132.318 9.93927 131.698 10.7393 130.978 11.5593C130.958 11.3993 130.858 10.9793 130.678 10.5993C130.538 10.2993 130.458 9.95927 130.198 9.95927C130.138 9.95927 130.078 9.97927 130.018 9.99927L128.798 10.5593C128.678 10.6193 128.658 10.6793 128.658 10.7593C128.658 10.8793 128.778 11.0393 128.838 11.1593C129.138 11.8193 129.238 12.3993 129.238 13.6593V19.7193C129.238 19.9593 129.298 19.9993 129.538 19.9993H130.978C131.238 19.9993 131.258 19.9793 131.258 19.7193V13.0593C132.058 12.1393 132.558 11.8393 133.018 11.8393C133.338 11.8393 133.478 11.9193 133.758 11.9993C133.778 11.9993 133.778 11.9993 133.798 11.9993C133.878 11.9993 133.918 11.9593 133.998 11.7993L134.518 10.5193ZM139.553 7.01927C139.553 6.23927 138.913 5.59927 138.133 5.59927C137.353 5.59927 136.713 6.23927 136.713 7.01927C136.713 7.81927 137.353 8.43927 138.133 8.43927C138.933 8.43927 139.553 7.81927 139.553 7.01927ZM139.233 19.7193V10.5393C139.233 10.2793 139.193 10.2393 138.953 10.2393H135.693C135.433 10.2393 135.393 10.2593 135.393 10.5393V11.4993C135.393 11.7793 135.433 11.7993 135.693 11.7993H137.233V19.6993C137.233 19.9593 137.233 19.9993 137.513 19.9993H138.973C139.213 19.9993 139.233 19.9593 139.233 19.7193ZM145.08 7.01927C145.08 6.23927 144.44 5.59927 143.66 5.59927C142.86 5.59927 142.24 6.23927 142.24 7.01927C142.24 7.81927 142.86 8.43927 143.66 8.43927C144.44 8.43927 145.08 7.81927 145.08 7.01927ZM144.76 20.4193V10.5393C144.76 10.2593 144.74 10.2393 144.52 10.2393H141.22C140.96 10.2393 140.92 10.2393 140.92 10.5393V11.4993C140.92 11.7793 140.92 11.7993 141.16 11.7993H142.76V20.2393C142.76 22.2593 142.5 22.7593 141.5 22.7593C141.1 22.7593 140.56 22.5993 140.1 22.3993C140 22.3593 139.94 22.3393 139.88 22.3393C139.8 22.3393 139.76 22.3793 139.72 22.4593L139.32 23.6193C139.28 23.7193 139.26 23.7793 139.26 23.8193C139.26 23.8993 139.32 23.9593 139.48 24.0193C140.12 24.2993 140.86 24.4593 141.6 24.4593C142.58 24.4593 143.4 24.1593 143.92 23.6393C144.56 22.9993 144.76 22.2793 144.76 20.4193ZM155.147 22.7993L154.927 22.0593C154.887 21.9793 154.847 21.9393 154.807 21.9393C154.767 21.9393 154.727 21.9793 154.667 21.9993C154.327 22.1993 153.967 22.3193 153.667 22.3193C153.267 22.3193 153.047 22.1193 153.047 21.7393C153.047 21.3393 153.107 20.8393 153.627 20.1193L154.687 19.5993C154.747 19.5793 154.787 19.5193 154.787 19.4593C154.787 19.3993 154.747 19.3193 154.727 19.2593C154.367 18.5793 154.247 18.0193 154.247 16.8993V12.9793C154.247 10.8593 153.147 9.95927 150.947 9.95927C150.007 9.95927 149.047 10.1393 148.087 10.5393C147.927 10.5993 147.687 10.6793 147.687 10.9393C147.687 10.9993 147.707 11.0593 147.727 11.1193L148.047 12.0993C148.087 12.1993 148.147 12.2393 148.227 12.2393C148.287 12.2393 148.347 12.2193 148.407 12.1993C149.347 11.7993 150.027 11.6193 150.707 11.6193C151.887 11.6193 152.287 12.0593 152.287 13.2793V13.9193C149.927 13.9393 147.047 14.3593 147.047 17.3593C147.047 19.1193 148.167 20.2393 149.887 20.2393C150.947 20.2393 151.727 19.8993 152.587 19.0393C152.647 19.3193 152.727 19.5393 152.807 19.7393C151.947 20.6193 151.607 21.2393 151.607 21.9793C151.607 22.9793 152.347 23.6193 153.507 23.6193C153.947 23.6193 154.467 23.5193 154.867 23.2993C155.067 23.1993 155.167 23.1393 155.167 22.9793C155.167 22.9193 155.167 22.8793 155.147 22.7993ZM152.287 17.7593C151.607 18.4193 151.007 18.7193 150.387 18.7193C149.607 18.7193 149.027 18.0793 149.027 17.2193C149.027 15.4793 151.027 15.3993 152.287 15.3793V17.7593Z" fill="black"/>
</svg>
